<svg xmlns="http://www.w3.org/2000/svg" xmlns:xlink="http://www.w3.org/1999/xlink" width="601.095" height="461.32" viewBox="0 0 601.095 461.32"><defs><linearGradient id="a" x1="0.5" y1="1" x2="0.5" gradientUnits="objectBoundingBox"><stop offset="0" stop-color="gray" stop-opacity="0.251"/><stop offset="0.54" stop-color="gray" stop-opacity="0.122"/><stop offset="1" stop-color="gray" stop-opacity="0.102"/></linearGradient><linearGradient id="b" x1="0.503" y1="1" x2="0.503" y2="-0.002" xlink:href="#a"/><linearGradient id="c" x1="0.927" y1="1" x2="0.927" y2="0" xlink:href="#a"/></defs><g transform="translate(0.005 -0.008)"><path d="M109.6,284.118c20.409,25.95,12.48,63.854-.487,94.218-4.345,10.167-9.251,20.918-7.442,31.818,2.238,13.327,14.134,23.077,26.626,28.24a79.248,79.248,0,0,0,70.941-5.845c18.079-11.249,31.028-29.54,49.416-40.274,30.776-17.964,69.945-11.18,103.361,1.2,23.643,8.753,49.491,20.14,72.979,10.992,16.527-6.44,27.954-22.109,34.183-38.722,3.006-8.015,5.187-16.7,10.929-23.059,3.435-3.778,7.866-6.463,12.428-8.725,41.659-20.655,94.27-9.595,134.732-32.5C644.6,286,662.09,256.8,669.836,226.372s6.87-62.343,4.878-93.68c-1.4-22.275-3.9-46.05-18.136-63.242C641.521,51.268,615.685,44.5,592.334,47.959S547.812,63.737,529.19,78.243c-23.271,18.136-44.859,40.715-73.432,48.088-19.464,5-39.93,2.29-60,1.317-33.553-1.586-67.117,1.941-100.487,5.793-31.944,3.692-64.117,7.757-94.55,18.148-21.531,7.328-38.785,20.678-59.12,29.981-13.253,6.08-27.708,7.757-40.262,15.5-15.457,9.537-29.631,26.128-25.67,45.541C79.434,261.087,98.773,270.344,109.6,284.118Z" transform="translate(-75 -47.08)" fill="#55cba8" opacity="0.1"/><path d="M222.632,538.28s-1.889-55.965-32.167-87.589A84.833,84.833,0,0,1,167.2,402.328a142.7,142.7,0,0,1-.71-26.088" transform="translate(-113.99 -187.8)" fill="none" stroke="#535461" stroke-miterlimit="10" stroke-width="2"/><path d="M133.125,329.548c2.072,6.251,19.4,20.609,19.4,20.609s5.307-21.874,3.234-28.12a11.921,11.921,0,0,0-22.63,7.505Z" transform="translate(-99.592 -161.134)" fill="#55cba8"/><path d="M117.943,396.935c5.152,4.122,27.479,6.767,27.479,6.767s-7.442-21.245-12.595-25.361a11.919,11.919,0,0,0-14.884,18.594Z" transform="translate(-91.611 -187.708)" fill="#55cba8"/><path d="M149.048,497.706c6.515.962,27.141-8.015,27.141-8.015s-17.14-14.587-23.655-15.548a11.921,11.921,0,0,0-3.486,23.586Z" transform="translate(-102.307 -229.6)" fill="#55cba8"/><path d="M195.026,569.776c6.257,2.049,28.109-3.332,28.109-3.332s-14.432-17.272-20.689-19.321A11.922,11.922,0,0,0,195,569.776Z" transform="translate(-122.799 -260.6)" fill="#55cba8"/><path d="M194.044,399.708c-3.04,5.839-22.424,17.277-22.424,17.277s-1.763-22.435,1.277-28.28a11.919,11.919,0,1,1,21.147,11Z" transform="translate(-116.092 -190.385)" fill="#55cba8"/><path d="M242.343,482.092c-4.649,4.666-26.563,9.772-26.563,9.772s5.032-21.937,9.675-26.6a11.919,11.919,0,0,1,16.888,16.825Z" transform="translate(-135.189 -224.359)" fill="#55cba8"/><path d="M718.229,592.136s-9.091-3.08-13.465,4.929a14.61,14.61,0,0,0,.195,14.066c2.862,5.192,8.793,11.936,20.037,11.335,9.515-.509,12.652-7.768,13.522-14.524A14.919,14.919,0,0,0,718.7,591.97Z" transform="translate(-343.511 -279.658)" fill="#55cba8"/><path d="M706.891,611.665A14.61,14.61,0,0,1,706.7,597.6c4.374-8.015,13.465-4.929,13.465-4.929l.464-.166a14.787,14.787,0,0,1,10.682.24,14.793,14.793,0,0,0-12.594-1.2l-.464.166s-9.091-3.08-13.465,4.929a14.61,14.61,0,0,0,.195,14.066,21.735,21.735,0,0,0,10.3,9.732A22.527,22.527,0,0,1,706.891,611.665Z" transform="translate(-343.519 -279.471)" fill="#fff" opacity="0.1"/><path d="M721.36,599.64s3.372,2.651,11.553,0" transform="translate(-351.336 -283.309)" opacity="0.2"/><path d="M720.1,566s5.776,15.646,5.3,19.739l4.58-.481S722.27,571.519,724.2,566Z" transform="translate(-350.797 -268.927)" fill="#6c63ff"/><path d="M720.1,566s5.776,15.646,5.3,19.739l4.58-.481S722.27,571.519,724.2,566Z" transform="translate(-350.797 -268.927)" fill="#893131"/><path d="M747.951,566.542s-9.091-4.648-13.167-.807-4.694,13.659-4.694,13.659S744.923,581.432,747.951,566.542Z" transform="translate(-355.068 -268.163)" fill="#6ca9a7"/><path d="M747.951,566.542s-9.091-4.648-13.167-.807-4.694,13.659-4.694,13.659S744.923,581.432,747.951,566.542Z" transform="translate(-355.068 -268.163)" fill="#6ca9a7" opacity="0.15"/><path d="M730.1,581.132s2.387-11.4,17.856-12.852" transform="translate(-355.073 -269.902)" fill="rgba(137,49,49,0.68)" stroke="#893131" stroke-miterlimit="10" stroke-width="1" opacity="0.95"/><path d="M256.513,404.217s1.855-30.261-12.841-48.855A45.935,45.935,0,0,1,233.614,328.1a77.284,77.284,0,0,1,.962-14.1" transform="translate(-142.804 -161.191)" fill="none" stroke="#535461" stroke-miterlimit="10" stroke-width="2"/><path d="M219.13,287.535c.8,3.475,9.394,12.108,9.394,12.108s4.007-11.518,3.189-14.987a6.458,6.458,0,0,0-12.595,2.862Z" transform="translate(-136.547 -146.496)" fill="#6c63ff"/><path d="M207.339,322.949c2.559,2.485,14.466,5.061,14.466,5.061s-2.914-11.833-5.473-14.312a6.453,6.453,0,0,0-8.994,9.257Z" transform="translate(-130.744 -160.281)" fill="#6c63ff"/><path d="M219.084,378.99c3.435.853,15.039-2.937,15.039-2.937s-8.49-8.742-11.948-9.595a6.454,6.454,0,0,0-3.091,12.532Z" transform="translate(-134.502 -183.537)" fill="#6c63ff"/><path d="M240.173,420.212c3.269,1.425,15.319-.355,15.319-.355s-6.87-10.053-10.156-11.45a6.451,6.451,0,1,0-5.153,11.829Z" transform="translate(-143.965 -201.322)" fill="#6c63ff"/><path d="M247.722,328.51c-1.935,2.994-12.972,8.158-12.972,8.158s.2-12.182,2.141-15.176a6.453,6.453,0,0,1,10.831,7.019Z" transform="translate(-143.299 -163.135)" fill="#6c63ff"/><path d="M269.491,375.609c-2.742,2.29-14.821,3.9-14.821,3.9s3.836-11.564,6.583-13.842a6.454,6.454,0,1,1,8.238,9.938Z" transform="translate(-151.815 -182.646)" fill="#6c63ff"/><path d="M286.216,426.115c-2.319,2.708-13.946,6.354-13.946,6.354s1.826-12.022,4.15-14.753a6.455,6.455,0,1,1,9.8,8.4Z" transform="translate(-159.34 -204.569)" fill="#6c63ff"/><path d="M219.13,287.535c.8,3.475,9.394,12.108,9.394,12.108s4.007-11.518,3.189-14.987a6.458,6.458,0,0,0-12.595,2.862Z" transform="translate(-136.547 -146.496)" fill="#6cef50" opacity="0.5"/><path d="M207.339,322.949c2.559,2.485,14.466,5.061,14.466,5.061s-2.914-11.833-5.473-14.312a6.453,6.453,0,0,0-8.994,9.257Z" transform="translate(-130.744 -160.281)" fill="#6cef50" opacity="0.5"/><path d="M219.084,378.99c3.435.853,15.039-2.937,15.039-2.937s-8.49-8.742-11.948-9.595a6.454,6.454,0,0,0-3.091,12.532Z" transform="translate(-134.502 -183.537)" fill="#6cef50" opacity="0.5"/><path d="M240.173,420.212c3.269,1.425,15.319-.355,15.319-.355s-6.87-10.053-10.156-11.45a6.451,6.451,0,1,0-5.153,11.829Z" transform="translate(-143.965 -201.322)" fill="#6cef50" opacity="0.5"/><path d="M247.722,328.51c-1.935,2.994-12.972,8.158-12.972,8.158s.2-12.182,2.141-15.176a6.453,6.453,0,0,1,10.831,7.019Z" transform="translate(-143.299 -163.135)" fill="#6cef50" opacity="0.5"/><path d="M269.491,375.609c-2.742,2.29-14.821,3.9-14.821,3.9s3.836-11.564,6.583-13.842a6.454,6.454,0,1,1,8.238,9.938Z" transform="translate(-151.815 -182.646)" fill="#6cef50" opacity="0.5"/><path d="M286.216,426.115c-2.319,2.708-13.946,6.354-13.946,6.354s1.826-12.022,4.15-14.753a6.455,6.455,0,1,1,9.8,8.4Z" transform="translate(-159.34 -204.569)" fill="#fff" opacity="0.5"/><path d="M504.5,20.39V217.3H793.555V20.39Z" transform="translate(-215.688 -8.714)" fill="url(#a)"/><rect width="281.704" height="184.412" transform="translate(293.1 20.607)" fill="#fff"/><rect width="281.704" height="13.568" transform="translate(293.1 11.837)" fill="#eee"/><circle cx="3.292" cy="3.292" r="3.292" transform="translate(300.525 15.123)" fill="#ff5252"/><circle cx="3.292" cy="3.292" r="3.292" transform="translate(309.576 15.123)" fill="#ff0"/><circle cx="3.292" cy="3.292" r="3.292" transform="translate(318.621 15.123)" fill="#69f0ae"/><rect width="104.975" height="4.374" transform="translate(303.897 47.135)" fill="#55cba8" opacity="0.5"/><rect width="104.975" height="4.374" transform="translate(303.897 55.883)" fill="#55cba8" opacity="0.5"/><rect width="104.975" height="4.374" transform="translate(303.897 64.63)" fill="#55cba8" opacity="0.5"/><rect width="68.789" height="4.374" transform="translate(340.078 73.378)" fill="#55cba8" opacity="0.5"/><rect width="55.273" height="4.374" transform="translate(303.897 82.131)" fill="#55cba8" opacity="0.5"/><rect width="42.546" height="4.374" transform="translate(333.717 90.878)" fill="#55cba8" opacity="0.5"/><rect width="123.666" height="71.176" transform="translate(422.789 77.757)" fill="#55cba8" opacity="0.5"/><rect width="123.666" height="71.176" transform="translate(437.502 84.512)" fill="#eee"/><path d="M908.42,304.665H839.23V291.647C856.135,283.747,882.143,279.31,908.42,304.665Z" transform="translate(-401.728 -148.994)" fill="#55cba8"/><g transform="translate(474.083 136.474)" opacity="0.1"><path d="M989.419,302.82v1.843H903.13v-.4S945.591,262.947,989.419,302.82Z" transform="translate(-903.13 -285.467)"/></g><path d="M990.809,302.82v1.843H904.52v-.4S946.981,262.947,990.809,302.82Z" transform="translate(-429.641 -148.993)" fill="#55cba8"/><circle cx="6.36" cy="6.36" r="6.36" transform="translate(445.459 90.878)" fill="#55cba8"/><path d="M953.951,208.369c-.727,0-1.54,0-2.09.046a2.543,2.543,0,0,0-.727.149l-3.744,1.345c3.023.074,6.177.052,9.268,0l17.369-.132c1.769,0,3.635-.029,5.112-.137.99-.069,1.717-.177,2.628-.258,3.286-.292,8.083-.235,12.366-.223s9.452-.1,10.957-.527H995.9c-.99,0-2.032,0-2.908-.052-1.025-.057-1.649-.172-2.548-.252-1.488-.126-3.538-.143-5.45-.149C974.531,208.174,964.186,208.426,953.951,208.369Z" transform="translate(-447.969 -115.95)" fill="#f4f4f4"/><path d="M975.8,221.973h-.452a.572.572,0,0,0-.155.034l-.813.292h2.009l3.761-.029c.384,0,.784,0,1.1-.029l.572-.057c.71-.063,1.752-.052,2.679-.046a14.6,14.6,0,0,0,2.376-.114h-2.622c-.189,0-.355-.04-.572-.052-.321,0-.767-.029-1.179-.034C980.254,221.927,978.015,221.973,975.8,221.973Z" transform="translate(-459.508 -121.832)" fill="#f4f4f4"/><path d="M929.26,241.414h-.452a.573.573,0,0,0-.155.034l-.813.292h2.009l3.761-.029c.384,0,.784,0,1.1-.029l.572-.057c.71-.063,1.752-.052,2.679-.046a14.6,14.6,0,0,0,2.376-.115h-2.622c-.189,0-.355-.04-.572-.052-.321,0-.767-.029-1.179-.034C933.719,241.374,931.475,241.425,929.26,241.414Z" transform="translate(-439.611 -130.144)" fill="#f4f4f4"/><path d="M901.893,280.913h-2.965s-.933-32.7,2.988-42.793h.75S900.027,275.125,901.893,280.913Z" transform="translate(-427.209 -128.751)" fill="#893131"/><path d="M893.339,222.924s-2.427,6.727-1.305,9.732c0,0,1.683-6.166,3.647-7.1s4.007,7.1,4.007,7.1,1.145-5.044-.933-9.16a16.247,16.247,0,0,1,6.166,6.538s.372-2.805-4.483-8.587a19.331,19.331,0,0,1,7.1,3.738s.933-2.055-4.86-5.421c0,0,.75-2.427,5.232-1.305,0,0,0-3.177-7.1-2.616,0,0,0-2.055,4.671-1.683,0,0,0-2.616-5.421-1.683a8.725,8.725,0,0,1,1.866-2.055,3.755,3.755,0,0,0-2.616.75s.189-3.366-2.616-4.671l-.372,4.671s-3.143-3.7-2.427-2.988a8.2,8.2,0,0,1,.573,3.549,5.82,5.82,0,0,0-7.1.189s4.86.372,5.6,2.055c0,0-4.11-.75-5.044-.189,0,0,3.177,1.145,2.988,1.866,0,0-5.6,0-6.354,2.055,0,0,5.793.75,6.166,1.305,0,0-6.727,4.86-7.1,6.166,0,0,6.915-4.11,8.015-4.11s-5.044,5.982-4.671,7.477C886.99,228.54,892.034,222.547,893.339,222.924Z" transform="translate(-420.71 -115.232)" fill="#55cba8"/><path d="M968.182,286.324h2.29s.716-24.983-2.29-32.694h-.572S969.608,281.893,968.182,286.324Z" transform="translate(-456.614 -135.381)" fill="#893131"/><path d="M963.035,242.026s1.855,5.152,1,7.442c0,0-1.282-4.712-2.782-5.427s-3.068,5.427-3.068,5.427a11.9,11.9,0,0,1,.716-7,12.411,12.411,0,0,0-4.711,5s-.286-2.141,3.435-6.566a14.47,14.47,0,0,0-5.427,2.862s-.716-1.569,3.71-4.139c0,0-.572-1.855-4.007-1,0,0,0-2.427,5.427-2,0,0,0-1.569-3.567-1.282,0,0,0-2,4.139-1.282a6.3,6.3,0,0,0-1.425-1.569,2.862,2.862,0,0,1,2,.572,3.861,3.861,0,0,1,2-3.567l.286,3.567s2.4-2.828,1.855-2.29a6.263,6.263,0,0,0-.429,2.714,4.454,4.454,0,0,1,5.427.143s-3.71.286-4.282,1.569c0,0,3.143-.572,3.853-.143,0,0-2.427.859-2.29,1.425,0,0,4.282,0,4.855,1.569,0,0-4.425.572-4.711,1,0,0,5.152,3.71,5.427,4.711,0,0-5.284-3.143-6.137-3.143s3.853,4.58,3.567,5.725C967.889,246.308,964.036,241.74,963.035,242.026Z" transform="translate(-449.897 -125.065)" fill="#55cba8"/><path d="M1016.085,287.089h1.414s.441-15.457-1.414-20.249h-.355S1016.967,284.346,1016.085,287.089Z" transform="translate(-477.186 -141.029)" fill="#893131"/><path d="M1012.848,259.631s1.145,3.183.618,4.58c0,0-.8-2.92-1.717-3.36s-1.9,3.36-1.9,3.36a7.385,7.385,0,0,1,.441-4.334,7.688,7.688,0,0,0-2.92,3.1s-.177-1.328,2.124-4.065a8.971,8.971,0,0,0-3.36,1.769s-.441-.973,2.29-2.565c0,0-.355-1.145-2.473-.618,0,0,0-1.506,3.36-1.237,0,0,0-.973-2.21-.8,0,0,0-1.237,2.565-.8a3.89,3.89,0,0,0-.882-.973,1.78,1.78,0,0,1,1.237.355,2.393,2.393,0,0,1,1.237-2.21l.177,2.21s1.488-1.752,1.145-1.414a3.876,3.876,0,0,0-.263,1.677,2.754,2.754,0,0,1,3.36.086s-2.29.177-2.651.973a6.613,6.613,0,0,1,2.387-.086s-1.506.532-1.414.882c0,0,2.651,0,3.005.973a13.44,13.44,0,0,0-2.92.618s3.183,2.29,3.36,2.92a24.926,24.926,0,0,0-3.8-1.946c-.532,0,2.387,2.828,2.21,3.538C1015.883,262.282,1013.5,259.454,1012.848,259.631Z" transform="translate(-473.005 -134.616)" fill="#55cba8"/><path d="M919.992,266.753h0l-.3-1.591a.864.864,0,0,0-.269-.624l-1.38-.676h0a1.563,1.563,0,0,1-.246-.412v-.034a.829.829,0,0,0,.16-.326.574.574,0,0,0,0-.092h0a.51.51,0,0,0,.572-.412v-.034a.509.509,0,0,1-.464.384,1.408,1.408,0,0,0,.624-1.145v-.057a.51.51,0,0,0,.235-.343v-.034a.509.509,0,0,1-.246.321,1.4,1.4,0,0,0-.086-.384h.034a.51.51,0,0,0,.51-.51v-.034a.509.509,0,0,1-.51.475h-.063a.836.836,0,0,0,.573-.681v-.034a.509.509,0,0,1-.1.275.512.512,0,0,0-1.013-.149l-.092-.052a.51.51,0,0,1,.464-.372h-.034a.509.509,0,0,0-.492.343,1.408,1.408,0,0,0-1.775.51c-.109.08-.246.195-.24.292a.97.97,0,0,0-.12.149,1.952,1.952,0,0,0-.16,1.059,1.145,1.145,0,0,1-.367.973.487.487,0,0,0,.378,0,1.438,1.438,0,0,0,.332-.195.739.739,0,0,0,.235-.223h0a1.147,1.147,0,0,0,.212.109c.029.24.034.515-.069.6h0v-.046a1.294,1.294,0,0,1-.9.258,1.145,1.145,0,0,0-.927.572l-.429,1.838h0v.029h0v.029h0a.137.137,0,0,0,.1.1l.132.034a2.8,2.8,0,0,1-.006.882,7.848,7.848,0,0,0-.155,1.351c.034.229.092,1.408.114,1.969q-.071.283-.114.572l-.641,3.841s-.475,3.074-.452,4.007l-.086.538s-1.3,1.632-.916,1.861.967.332,1.529-.538a1.4,1.4,0,0,1,.355-.538.527.527,0,0,0,.177-.447l-.04-.378h.109a13.269,13.269,0,0,0,.573-3.572s1.185-4.225,2.09-4.889h0l.086-.04.195,4.087-.195,4.511-.04.269s-1.3,1.632-.916,1.861.968.332,1.529-.538a1.4,1.4,0,0,1,.355-.538.527.527,0,0,0,.177-.447l-.057-.572a11.69,11.69,0,0,0,.572-4.213l.4-2.7a2.844,2.844,0,0,0,.343-1.586,14.624,14.624,0,0,0,.384-3.229l.08-1.271h.24l.029-.034h0v-.029h0Zm-1.111,2.582a2.68,2.68,0,0,0-.12-.263h-.034v-.1a1.091,1.091,0,0,0,.046-.132.5.5,0,0,0,.074-.275,2.6,2.6,0,0,1,.057.767Zm-.12-1.088-.08-.853v-.069l.109,1.082Zm-3.773.115a.3.3,0,0,0-.069.229h0a.969.969,0,0,0,.034.258l-.126.532v-1.019a2.252,2.252,0,0,0,.212-.343.572.572,0,0,1-.023.343Z" transform="translate(-432.816 -138.188)" fill="url(#b)"/><path d="M918.33,262.737a1.878,1.878,0,0,0-.155,1.019,1.082,1.082,0,0,1-.355.939.469.469,0,0,0,.361,0,1.383,1.383,0,0,0,.321-.189.71.71,0,0,0,.223-.218.846.846,0,0,0,.052-.435,4.582,4.582,0,0,1,.069-.773c0-.16.177-.572,0-.676S918.41,262.611,918.33,262.737Z" transform="translate(-435.327 -139.124)" fill="#72351c"/><path d="M913.32,292.437l-.12.784s-1.254,1.574-.882,1.792.933.321,1.471-.515a1.351,1.351,0,0,1,.343-.515h0a.509.509,0,0,0,.172-.429l-.12-1.214Z" transform="translate(-432.946 -151.931)" fill="#333"/><path d="M919.91,292.987l-.12.784s-1.254,1.574-.882,1.792.933.321,1.471-.515a1.352,1.352,0,0,1,.344-.515h0a.51.51,0,0,0,.172-.429l-.12-1.214Z" transform="translate(-435.763 -152.166)" fill="#333"/><path d="M915.919,276.193a2.966,2.966,0,0,0-.807,1.906l-.618,3.7a32.622,32.622,0,0,0-.424,4.007l1.042.355a12.788,12.788,0,0,0,.573-3.435s1.254-4.46,2.13-4.774L918,281.89l-.195,4.442.893.177a12.12,12.12,0,0,0,.618-4.316l.464-3.177a4.706,4.706,0,0,0-.206-3.166Z" transform="translate(-433.724 -144.881)" fill="#4d8af0"/><g transform="translate(481.319 130.958)" opacity="0.1"><path d="M918.438,279.569V279.5c-.876.315-2.13,4.774-2.13,4.774a12.527,12.527,0,0,1-.538,3.4l.115.04a12.783,12.783,0,0,0,.572-3.435S917.568,280.21,918.438,279.569Z" transform="translate(-915.77 -277.399)"/><path d="M922.97,275.83h-.12a4.712,4.712,0,0,1,.2,3.154l-.464,3.177a11.991,11.991,0,0,1-.607,4.294h.115a12.12,12.12,0,0,0,.618-4.316l.464-3.177a4.706,4.706,0,0,0-.206-3.131Z" transform="translate(-918.425 -275.83)"/></g><path d="M915.9,271.257a.132.132,0,0,0,.1.132,2.061,2.061,0,0,1,.79.378c.441.344-.464-.687-.464-.687l-.3.069Z" transform="translate(-434.506 -142.842)" fill="#f55f44"/><path d="M915.9,271.257a.132.132,0,0,0,.1.132,2.061,2.061,0,0,1,.79.378c.441.344-.464-.687-.464-.687l-.3.069Z" transform="translate(-434.506 -142.842)" opacity="0.1"/><path d="M923.42,272.48a2.765,2.765,0,0,1,1.242-.492.115.115,0,0,0,.115-.115h0a.99.99,0,0,0-1.357.607Z" transform="translate(-437.721 -143.143)" fill="#f55f44"/><path d="M924.777,271.843a.99.99,0,0,0-1.357.607,2.342,2.342,0,0,1,1.3-.492" transform="translate(-437.721 -143.13)" opacity="0.1"/><circle cx="1.357" cy="1.357" r="1.357" transform="translate(483.134 122.565)" fill="#72351c"/><path d="M919.379,264.661s.195.8,0,.962-.572.464-.286.7,1.328.63,1.672.441.738-.137.647-.532-.847-.315-.864-2.29Z" transform="translate(-435.827 -139.789)" fill="#fdb797"/><path d="M916.149,271a4.963,4.963,0,0,1-.08,1.288,7.561,7.561,0,0,0-.149,1.3c.04.286.126,2.181.126,2.181s-.149,1.66.658,1.506-.126-1.889-.126-1.889l.04-2.29a2.112,2.112,0,0,0,.412-1.013C917.065,271.572,916.149,271,916.149,271Z" transform="translate(-434.515 -142.808)" opacity="0.1"/><path d="M916.119,271a4.966,4.966,0,0,1-.08,1.288,7.561,7.561,0,0,0-.149,1.3c.04.286.126,2.181.126,2.181s-.149,1.66.658,1.506-.126-1.889-.126-1.889l.04-2.29a2.113,2.113,0,0,0,.412-1.013C917.041,271.572,916.119,271,916.119,271Z" transform="translate(-434.502 -142.808)" fill="#fdb797"/><path d="M924.174,271.19l-.109,1.769a14.113,14.113,0,0,1-.372,3.109s.08,1.717-.727,1.717.137-1.906.137-1.906a7.806,7.806,0,0,0,.212-2.553L923.1,271.2Z" transform="translate(-437.388 -142.889)" opacity="0.1"/><path d="M924.194,271.19l-.109,1.769a14.11,14.11,0,0,1-.372,3.109s.08,1.717-.727,1.717.137-1.906.137-1.906a7.806,7.806,0,0,0,.212-2.553l-.212-2.124Z" transform="translate(-437.396 -142.889)" fill="#fdb797"/><path d="M918.651,267.677s.653.3,1.013-.572l1.334.653a.83.83,0,0,1,.258.6l.286,1.534a.979.979,0,0,0-1.277.572l.08.864h0a.927.927,0,0,1-.04.647.143.143,0,0,0,0,.115.424.424,0,0,1-.384.572,8.086,8.086,0,0,0-1.07.08c-.286.08-1.145-.166-1.437,0s-.893-.126-.893-.126l.166-.7s-.109-.344,0-.464a2.983,2.983,0,0,0-.069-1.494s-.492-.464-.779-.384l.412-1.769a1.076,1.076,0,0,1,.893-.572,1.248,1.248,0,0,0,.864-.246S917.689,267.568,918.651,267.677Z" transform="translate(-434.481 -141.093)" opacity="0.1"/><path d="M918.737,267.6c.177.046.658.1.945-.618l1.334.653a.83.83,0,0,1,.258.6l.286,1.534a.979.979,0,0,0-1.277.572l.08.864.052.172a.487.487,0,0,1-.069.435.154.154,0,0,0,0,.16.424.424,0,0,1-.384.572,8.089,8.089,0,0,0-1.071.08c-.286.08-1.145-.166-1.437,0s-.893-.126-.893-.126l.166-.7s-.109-.343,0-.464a2.983,2.983,0,0,0-.069-1.494s-.492-.464-.779-.384l.412-1.769a1.076,1.076,0,0,1,.893-.572,1.248,1.248,0,0,0,.864-.246s-.321.572.527.716Z" transform="translate(-434.498 -141.042)" opacity="0.1"/><path d="M918.72,267.643c.177.046.658.1.945-.618l1.334.653a.83.83,0,0,1,.258.6l.286,1.534a.979.979,0,0,0-1.277.572l.08.865h0a.927.927,0,0,1-.04.647.143.143,0,0,0,0,.115.424.424,0,0,1-.384.572,8.085,8.085,0,0,0-1.07.08c-.286.08-1.145-.166-1.437,0s-.893-.126-.893-.126l.166-.7s-.109-.344,0-.464a2.983,2.983,0,0,0-.069-1.494s-.492-.464-.779-.384l.412-1.769a1.076,1.076,0,0,1,.893-.572,1.248,1.248,0,0,0,.864-.246s-.321.572.527.716Z" transform="translate(-434.481 -141.059)" fill="#f55f44"/><path d="M920.895,264.05l-1.145.727a3.794,3.794,0,0,1,.069.378,1.145,1.145,0,0,0,.418.08,1.173,1.173,0,0,0,.756-.343A4.532,4.532,0,0,1,920.895,264.05Z" transform="translate(-436.152 -139.836)" opacity="0.1"/><circle cx="1.122" cy="1.122" r="1.122" transform="translate(482.916 123.086)" fill="#fdb797"/><circle cx="0.492" cy="0.492" r="0.492" transform="translate(485.206 122.359)" fill="#72351c"/><path d="M923.212,262.238a.492.492,0,0,1-.492-.458v.034a.492.492,0,0,0,.985,0s0,0,0-.034A.492.492,0,0,1,923.212,262.238Z" transform="translate(-437.422 -138.866)" fill="#72351c"/><path d="M922.785,263.038a.492.492,0,0,1-.4-.538v.034a.495.495,0,1,0,.973.177v-.034A.492.492,0,0,1,922.785,263.038Z" transform="translate(-437.275 -139.174)" fill="#72351c"/><path d="M922.115,265.1a.492.492,0,0,1-.4-.538v.034a.495.495,0,0,0,.973.177v-.034a.492.492,0,0,1-.573.361Z" transform="translate(-436.988 -140.054)" fill="#72351c"/><path d="M923.212,261.788a.492.492,0,0,1-.492-.458v.034a.492.492,0,0,0,.985,0s0,0,0-.034A.492.492,0,0,1,923.212,261.788Z" transform="translate(-437.422 -138.673)" fill="#72351c"/><path d="M922.333,261.3a.492.492,0,0,1,.464-.487h-.034a.492.492,0,0,0,0,.985h.034a.492.492,0,0,1-.464-.5Z" transform="translate(-437.23 -138.451)" fill="#72351c"/><path d="M923.234,269.79a1.774,1.774,0,0,1,0,.739s-.069.647.04.756" transform="translate(-437.633 -142.29)" opacity="0.1"/><path d="M917.414,270a1.774,1.774,0,0,1,0,.738s-.069.647.04.756" transform="translate(-435.145 -142.38)" opacity="0.1"/><path d="M917.38,274.648a.492.492,0,0,0,.326,0,.687.687,0,0,1,.4,0" transform="translate(-435.139 -144.355)" opacity="0.1"/><path d="M917.67,272.867a2.863,2.863,0,0,0,1.145-.177s1.4.343,1.8.1" transform="translate(-435.263 -143.53)" opacity="0.1"/><rect width="0.864" height="0.532" rx="0.266" transform="translate(481.394 135.228)" fill="#fdb797"/><path d="M915.9,283.53h.464l.4.063h-.143Z" transform="translate(-434.506 -148.164)" fill="#f0e4e4"/><path d="M921.33,279.65h.464l.4.04h-.143Z" transform="translate(-436.828 -146.506)" fill="#f0e4e4"/><path d="M921.33,279.82h.464l.4.04h-.143Z" transform="translate(-436.828 -146.578)" fill="#f0e4e4"/><path d="M921.33,280h.464l.4.04h-.143Z" transform="translate(-436.828 -146.655)" fill="#f0e4e4"/><path d="M921.33,280.15h.464l.4.04h-.143Z" transform="translate(-436.828 -146.719)" fill="#f0e4e4"/><path d="M915.9,284.19h.464l.4.046h-.143Z" transform="translate(-434.506 -148.447)" fill="#f0e4e4"/><path d="M915.9,284.11h.464l.4.046h-.143Z" transform="translate(-434.506 -148.412)" fill="#f0e4e4"/><path d="M915.9,284h.464l.4.046h-.143Z" transform="translate(-434.506 -148.365)" fill="#f0e4e4"/><path d="M915.9,283.94h.464l.4.046h-.143Z" transform="translate(-434.506 -148.34)" fill="#f0e4e4"/><path d="M915.9,283.42h.464l.4.063h-.143Z" transform="translate(-434.506 -148.117)" fill="#f0e4e4"/><path d="M915.9,283.28h.464l.4.063h-.143Z" transform="translate(-434.506 -148.058)" fill="#f0e4e4"/><path d="M920.838,262.392a2.72,2.72,0,0,0,.155,1.237,1.477,1.477,0,0,1-.069,1.179.389.389,0,0,0,.349-.086,1.357,1.357,0,0,0,.252-.3.8.8,0,0,0,.155-.309,1.23,1.23,0,0,0-.08-.521,6.749,6.749,0,0,1-.166-.927c0-.189,0-.738-.212-.79S920.878,262.232,920.838,262.392Z" transform="translate(-436.611 -138.905)" opacity="0.1"/><path d="M920.888,262.38a2.72,2.72,0,0,0,.155,1.237,1.477,1.477,0,0,1-.063,1.191.389.389,0,0,0,.349-.086,1.356,1.356,0,0,0,.252-.3.8.8,0,0,0,.155-.309,1.231,1.231,0,0,0-.08-.521,6.747,6.747,0,0,1-.166-.927c0-.189,0-.738-.212-.79S920.946,262.22,920.888,262.38Z" transform="translate(-436.632 -138.905)" fill="#72351c"/><path d="M919.561,262.5c.092.1.115.246.195.361a.7.7,0,0,0,.573.223.315.315,0,0,1,.16.034c.086.057.092.183.149.269a.315.315,0,0,0,.469,0,.767.767,0,0,0,.137-.469,3.061,3.061,0,0,0,0-.572.91.91,0,0,0-.252-.607,1.053,1.053,0,0,0-.441-.189,1.306,1.306,0,0,0-.681-.052,1.224,1.224,0,0,0-.309.155l-.4.269c-.149.1-.424.309-.155.424C919.2,262.39,919.417,262.35,919.561,262.5Z" transform="translate(-435.785 -138.737)" opacity="0.1"/><path d="M919.641,262.467c.092.1.115.246.195.361a.7.7,0,0,0,.573.223.315.315,0,0,1,.16.034c.086.057.092.183.149.269a.315.315,0,0,0,.469,0,.767.767,0,0,0,.177-.492,3.066,3.066,0,0,0,0-.572.91.91,0,0,0-.252-.607,1.053,1.053,0,0,0-.441-.189,1.305,1.305,0,0,0-.681-.051,1.223,1.223,0,0,0-.309.155l-.4.269c-.149.1-.424.309-.155.424A.963.963,0,0,1,919.641,262.467Z" transform="translate(-435.837 -138.712)" fill="#72351c"/><path d="M921.38,279.65h.464l.4.04H922.1Z" transform="translate(-436.849 -146.506)" fill="#f0e4e4"/><path d="M921.38,279.82h.464l.4.04H922.1Z" transform="translate(-436.849 -146.578)" fill="#f0e4e4"/><path d="M921.38,280h.464l.4.04H922.1Z" transform="translate(-436.849 -146.655)" fill="#f0e4e4"/><path d="M921.38,280.15h.464l.4.04H922.1Z" transform="translate(-436.849 -146.719)" fill="#f0e4e4"/><path d="M921,289.38h.464l.4.04h-.143Z" transform="translate(-436.687 -150.665)" fill="#f0e4e4"/><path d="M921,289.54h.464l.4.04h-.143Z" transform="translate(-436.687 -150.734)" fill="#f0e4e4"/><path d="M921,289.71h.464l.4.04h-.143Z" transform="translate(-436.687 -150.806)" fill="#f0e4e4"/><path d="M921,289.88h.464l.4.04h-.143Z" transform="translate(-436.687 -150.879)" fill="#f0e4e4"/><path d="M433.375,722.6H387.84V696.95h45.535Zm-43.611-1.924H431.44V698.874H389.764Z" transform="translate(-208.749 -324.911)" fill="#6c63ff" opacity="0.2"/><path d="M288.5,480.533c2.862,1.672,5.879,2.353,9,1.317a13.957,13.957,0,0,0,2.341-1.036c29.2.618,56.234.332,57.282-2.811,1.717-5.21-9.16-30.868-14.65-43.268a13.9,13.9,0,0,0,4.007-4.185c7.625,8.719,21.811,19.968,30.244,20.529,0,0,12.308,29.236,26.156,24.616s15.388-29.236,8.461-32.311l-46.159-29.236V365.637a18.17,18.17,0,0,0,1.929-8.988c0-.572.029-1.145,0-1.717l-1.54-13.848s-.08-.458-.292-1.288c-3.435-13.344-11.089-22.327-21.88-23.66a7.884,7.884,0,0,0,.939-3.109c.223-2.588-.853-5.227-.246-7.751.71-2.943,3.435-4.843,5.673-6.87,4.78-4.374,7.791-10.3,10.7-16.092,2.771-5.513,5.582-11.169,6.3-17.295s-1.145-12.927-6.154-16.533c-3.893-2.811-9.371-3.549-12.171-7.442-1.254-1.752-1.775-3.91-2.639-5.879-2.49-5.673-7.86-9.7-13.688-11.8-20.449-7.362-45.535,1.088-58.582,18.067-4.259,5.542-7.333,11.885-10.373,18.176L252.166,282.33c-1.895,3.91-3.727,8.793-1.2,12.325,1.237,1.717,3.355,2.782,4.213,4.723,1.145,2.576-.286,5.948,1.4,8.215.927,1.254,2.536,1.752,3.916,2.485a15.331,15.331,0,0,1,4.734,4.2l-24.136,18.7a16.253,16.253,0,0,0-6.217,11.226L232.49,368a28.944,28.944,0,0,0-1.076,8.307,14.156,14.156,0,0,0,1.46,7.442l.527-.126c.572,16.688,1.569,40.7,2.553,45.134.572,2.633,4.185,7.276,9.051,12.062l-1.717,4.866h.572l-.572,1.529h1.145c-4.855,17.541-18.062,30.759-18.062,30.759S256.912,479.629,288.5,480.533Zm-28.7-81.051v-18.7c2.817.435,4.895,1.408,5.559,3.183Zm8.152-81.395.092.137h-.034Z" transform="translate(-139.716 -121.301)" fill="url(#c)"/><path d="M420.31,461.2s1.46,51.878,2.925,58.456,22.659,26.328,33.61,27.061c0,0,11.69,27.765,24.846,23.38s14.615-27.765,8.015-30.691L445.894,511.64V456.11Z" transform="translate(-222.63 -221.946)" fill="#fdb797"/><path d="M342.01,576.09s19,40.921,16.808,47.516-124.228,0-124.228,0,22.653-22.653,18.268-47.516Z" transform="translate(-143.231 -273.241)" fill="#565171"/><path d="M353.08,360.939s-2.925,28.5,2.193,35.076-20.46,10.224-22.63,10.224-25.573-8.015-29.958-10.23-8.015-18.268-8.015-18.268,21.92,4.385,28.5-21.182Z" transform="translate(-168.916 -179.386)" fill="#fdb797"/><path d="M351.653,234.624c5.536,1.992,10.637,5.816,13,11.2.824,1.872,1.317,3.921,2.507,5.587,2.656,3.71,7.86,4.408,11.558,7.082,4.746,3.435,6.5,9.887,5.845,15.7s-3.332,11.192-5.959,16.424c-2.765,5.5-5.622,11.129-10.161,15.285-2.118,1.941-4.717,3.744-5.393,6.538-.572,2.4.447,4.9.229,7.362-.527,6.074-7.786,8.9-13.848,9.578-2.633.292-5.65.309-7.505-1.586a13.056,13.056,0,0,1-2.032-3.515,16.848,16.848,0,0,0-30.049-.309c-1.42,2.736-2.25,6.051-4.837,7.723-3.962,2.559-9.257-.447-12.171-4.145s-5.038-8.347-9.2-10.562c-1.311-.7-2.862-1.145-3.715-2.359-1.6-2.152-.24-5.353-1.322-7.8-.819-1.843-2.828-2.862-4.007-4.488-2.4-3.355-.664-8.015,1.145-11.707l10.442-21.582c2.862-5.977,5.811-12.022,9.852-17.266C308.4,235.655,332.229,227.629,351.653,234.624Z" transform="translate(-159.829 -126.171)" fill="#8f5a6a"/><path d="M311.978,414.765s-28.5,0-35.8-26.305l-23.987,18.588a15.457,15.457,0,0,0-5.9,10.665L244,440.344s-2.559,8.4.366,13.516c0,0,30.341-7.671,31.057,1.093l-21.17,59.188s32.883.733,41.648-5.112c0,0,35.8,7.3,44.573-.733s17.535-7.3,10.23-25.573c0,0,14.615-14.615,8.015-35.076s-.366.366-.366.366,14.249-6.944,13.516-20.094l-1.46-13.167s-.08-.435-.281-1.219c-4.454-17.335-16.424-26.906-33.249-20.8a15.429,15.429,0,0,1-9.944-.258S332.432,416.248,311.978,414.765Z" transform="translate(-146.809 -193.024)" opacity="0.1"/><path d="M311.978,412.215s-28.5,0-35.8-26.305L252.188,404.5a15.457,15.457,0,0,0-5.9,10.66L244,437.788s-2.559,8.4.366,13.516c0,0,30.341-7.671,31.057,1.093l-21.182,59.188s32.883.733,41.648-5.112c0,0,35.8,7.3,44.573-.733s17.535-7.3,10.23-25.573c0,0,14.615-14.615,8.015-35.076s-.366.366-.366.366,14.249-6.944,13.516-20.094l-1.46-13.167s-.08-.435-.28-1.219c-4.454-17.335-16.424-26.906-33.249-20.8a15.429,15.429,0,0,1-9.944-.258S332.433,413.675,311.978,412.215Z" transform="translate(-146.809 -191.934)" fill="#b45181"/><path d="M245.45,471.432s1.46,51.878,2.925,58.456,22.653,26.305,33.61,27.038c0,0,11.69,27.765,24.845,23.38s14.615-27.765,8.015-30.69l-43.84-27.765V466.32Z" transform="translate(-147.874 -226.311)" fill="#fdb797"/><path d="M276.693,470.551S259.9,481.955,245.276,481c0,0-1.46-19.584,2.925-20.678S271.581,460.327,276.693,470.551Z" transform="translate(-147.699 -223.604)" opacity="0.1"/><path d="M276.693,469.277s-16.791,11.4-31.418,10.448c0,0-1.46-19.584,2.925-20.678S271.581,459.047,276.693,469.277Z" transform="translate(-147.699 -223.057)" fill="#b45181"/><path d="M337.258,359.1l29.958,4.385s-.676,6.595-.807,14.169a33.627,33.627,0,0,1-35.259-5.725A33.133,33.133,0,0,0,337.258,359.1Z" transform="translate(-184.512 -180.472)" opacity="0.1"/><circle cx="33.61" cy="33.61" r="33.61" transform="translate(136.671 131.135)" fill="#fdb797"/><path d="M332.883,294.853a10.434,10.434,0,0,0,4.494.641q8.919-.057,17.821-.658c4.5-.3,9.3-.83,12.766-3.71,4.671-3.876,5.41-11.14,3-16.711s-7.328-9.675-12.52-12.812a37.376,37.376,0,0,0-9.457-4.288c-9.635-2.616-20.289.572-27.943,7.013S308.513,280,305.931,289.649c-.893,3.338-2.038,7.311-5.341,8.324,2.2,3.658,7.562,4.236,11.421,2.4,5.679-2.7,8.587-13.041,13.688-14.667C331.372,283.919,328.063,292.644,332.883,294.853Z" transform="translate(-171.447 -136.566)" opacity="0.1"/><path d="M332.9,293.595a10.433,10.433,0,0,0,4.494.641q8.919-.057,17.821-.658c4.5-.3,9.3-.83,12.766-3.71,4.671-3.876,5.41-11.14,3-16.711s-7.328-9.675-12.52-12.812a37.378,37.378,0,0,0-9.44-4.259c-9.635-2.616-20.289.572-27.943,7.013s-12.532,15.674-15.113,25.321c-.893,3.338-2.038,7.311-5.341,8.324,2.2,3.658,7.562,4.236,11.421,2.4,5.679-2.7,8.587-13.041,13.688-14.667C331.385,282.666,328.076,291.385,332.9,293.595Z" transform="translate(-171.46 -136.04)" fill="#8f5a6a"/><path d="M406.7,546.645a129.442,129.442,0,0,0-33.61-4.385" transform="translate(-202.443 -258.777)" opacity="0.1"/><path d="M300.33,481s10.963,8.015,8.015,12.423" transform="translate(-171.336 -232.587)" opacity="0.1"/><g transform="translate(73.206 331.262)" opacity="0.7"><path d="M486.651,578.64H127.88v31.366h20.884v98.7H466.512v-98.7h20.14Z" transform="translate(-127.88 -578.64)" fill="url(#a)"/></g><rect width="311.273" height="111.799" transform="translate(97.319 349.529)" fill="#e0e0e0"/><rect width="311.273" height="17.535" transform="translate(97.319 355.374)" opacity="0.1"/><rect width="351.467" height="29.958" transform="translate(76.858 337.106)" fill="#e0e0e0"/><rect width="67.226" height="9.497" rx="4.749" transform="translate(143.266 329.733)" fill="#535461"/><g transform="translate(184.181 223.825)" opacity="0.7"><rect width="167.077" height="115.526" rx="28.22" fill="url(#a)"/></g><rect width="158.273" height="113.391" rx="26.84" transform="translate(187.163 225.96)" fill="#3e3f49"/><rect width="158.273" height="113.391" rx="26.84" transform="translate(189.356 225.96)" fill="#535461"/><circle cx="5.112" cy="5.112" r="5.112" transform="translate(270.774 276.762)" fill="#e0e0e0"/></g></svg>