<svg xmlns="http://www.w3.org/2000/svg" width="300.6" height="300.6" viewBox="0 0 300.6 300.6">
  <g id="light_logo" transform="translate(-413 -63)">
    <g id="outer_circle" transform="translate(413 63)" fill="#fff">
      <path d="M 150.3000030517578 299.0999450683594 C 140.203125 299.0999450683594 130.113037109375 298.0828247070312 120.3100433349609 296.0768127441406 C 110.7569274902344 294.1219787597656 101.3601531982422 291.2050476074219 92.38081359863281 287.4071350097656 C 83.56411743164062 283.677978515625 75.06027221679688 279.062255859375 67.10554504394531 273.6881408691406 C 59.22600173950195 268.3648071289062 51.81638717651367 262.2513122558594 45.08250427246094 255.5174407958984 C 38.34865570068359 248.7835540771484 32.2351188659668 241.3739318847656 26.91180992126465 233.4944000244141 C 21.53769493103027 225.5396575927734 16.92196464538574 217.0358581542969 13.19284915924072 208.2191619873047 C 9.394887924194336 199.2398223876953 6.477964401245117 189.8430480957031 4.523118495941162 180.2899322509766 C 2.517118453979492 170.4869384765625 1.500003099441528 160.3968505859375 1.500003099441528 150.2999725341797 C 1.500003099441528 140.2030944824219 2.517118453979492 130.1130065917969 4.523118495941162 120.3100128173828 C 6.477964401245117 110.7568969726562 9.394887924194336 101.3601226806641 13.19284915924072 92.38078308105469 C 16.92196464538574 83.5640869140625 21.53769493103027 75.06027984619141 26.91180992126465 67.10555267333984 C 32.2351188659668 59.22600936889648 38.34865570068359 51.8163948059082 45.08250427246094 45.08251190185547 C 51.81638717651367 38.34862518310547 59.22600173950195 32.23512649536133 67.10554504394531 26.91181945800781 C 75.06027221679688 21.5377025604248 83.56411743164062 16.92197227478027 92.38081359863281 13.1928186416626 C 101.3601531982422 9.394895553588867 110.7569274902344 6.477972507476807 120.3100433349609 4.523126602172852 C 130.113037109375 2.517126321792603 140.203125 1.500010967254639 150.3000030517578 1.500010967254639 C 160.3968811035156 1.500010967254639 170.4869689941406 2.517126321792603 180.2899627685547 4.523126602172852 C 189.8430786132812 6.477972507476807 199.2398529052734 9.394895553588867 208.2191925048828 13.1928186416626 C 217.035888671875 16.92197227478027 225.5397338867188 21.5377025604248 233.4944610595703 26.91181945800781 C 241.3740081787109 32.23512649536133 248.7836151123047 38.34862518310547 255.5175018310547 45.08251190185547 C 262.2513427734375 51.8163948059082 268.3648986816406 59.22600936889648 273.6882019042969 67.10555267333984 C 279.0623168945312 75.06027984619141 283.6780395507812 83.5640869140625 287.4071655273438 92.38078308105469 C 291.2051086425781 101.3601226806641 294.1220397949219 110.7568969726562 296.0768737792969 120.3100128173828 C 298.0828857421875 130.1130065917969 299.1000061035156 140.2030944824219 299.1000061035156 150.2999725341797 C 299.1000061035156 160.3968505859375 298.0828857421875 170.4869384765625 296.0768737792969 180.2899322509766 C 294.1220397949219 189.8430480957031 291.2051086425781 199.2398223876953 287.4071655273438 208.2191619873047 C 283.6780395507812 217.0358581542969 279.0623168945312 225.5396575927734 273.6882019042969 233.4944000244141 C 268.3648986816406 241.3739318847656 262.2513427734375 248.7835540771484 255.5175018310547 255.5174407958984 C 248.7836151123047 262.2513122558594 241.3740081787109 268.3648071289062 233.4944610595703 273.6881408691406 C 225.5397338867188 279.062255859375 217.035888671875 283.677978515625 208.2191925048828 287.4071350097656 C 199.2398529052734 291.2050476074219 189.8430786132812 294.1219787597656 180.2899627685547 296.0768127441406 C 170.4869689941406 298.0828247070312 160.3968811035156 299.0999450683594 150.3000030517578 299.0999450683594 Z" stroke="none"/>
      <path d="M 150.3000030517578 3 C 140.3039245605469 3 130.3150024414062 4.00689697265625 120.6107177734375 5.99267578125 C 111.1546325683594 7.92767333984375 101.8533020019531 10.81497192382812 92.96513366699219 14.5743408203125 C 84.23762512207031 18.26577758789062 75.81971740722656 22.8348388671875 67.94525146484375 28.15475463867188 C 60.14483642578125 33.42465209960938 52.80953979492188 39.476806640625 46.14317321777344 46.1431884765625 C 39.476806640625 52.80955505371094 33.42462158203125 60.14480590820312 28.15475463867188 67.94526672363281 C 22.83486938476562 75.81971740722656 18.2657470703125 84.23764038085938 14.5743408203125 92.96510314941406 C 10.81497192382812 101.853271484375 7.92767333984375 111.1546020507812 5.99267578125 120.6107177734375 C 4.006866455078125 130.3149719238281 3 140.3038940429688 3 150.2999725341797 C 3 160.2960510253906 4.006866455078125 170.2849731445312 5.99267578125 179.9892272949219 C 7.92767333984375 189.4453430175781 10.81497192382812 198.7466735839844 14.5743408203125 207.6348571777344 C 18.2657470703125 216.3623046875 22.83486938476562 224.7802124023438 28.15475463867188 232.6546783447266 C 33.42462158203125 240.4551391601562 39.476806640625 247.7903900146484 46.14317321777344 254.4567565917969 C 52.80953979492188 261.1231384277344 60.14483642578125 267.17529296875 67.94525146484375 272.4451904296875 C 75.81971740722656 277.7651062011719 84.23762512207031 282.3341674804688 92.96513366699219 286.0256042480469 C 101.8533020019531 289.7849731445312 111.1546325683594 292.6722717285156 120.6107177734375 294.6072692871094 C 130.3150024414062 296.5930480957031 140.3039245605469 297.5999450683594 150.3000030517578 297.5999450683594 C 160.2960815429688 297.5999450683594 170.2850036621094 296.5930480957031 179.9892578125 294.6072692871094 C 189.4453735351562 292.6722717285156 198.7467041015625 289.7849731445312 207.6348876953125 286.0256042480469 C 216.3623809814453 282.3341674804688 224.7802429199219 277.7651062011719 232.6547088623047 272.4451904296875 C 240.4551696777344 267.17529296875 247.7904663085938 261.1231384277344 254.4568328857422 254.4567565917969 C 261.1231994628906 247.7903900146484 267.1753845214844 240.4551391601562 272.4452514648438 232.6546783447266 C 277.76513671875 224.7802124023438 282.3342590332031 216.3623046875 286.0256652832031 207.6348571777344 C 289.7850341796875 198.7466735839844 292.6723327636719 189.4453430175781 294.6073303222656 179.9892272949219 C 296.5931396484375 170.2849731445312 297.6000061035156 160.2960510253906 297.6000061035156 150.2999725341797 C 297.6000061035156 140.3038940429688 296.5931396484375 130.3149719238281 294.6073303222656 120.6107177734375 C 292.6723327636719 111.1546020507812 289.7850341796875 101.853271484375 286.0256652832031 92.96510314941406 C 282.3342590332031 84.23764038085938 277.76513671875 75.81971740722656 272.4452514648438 67.94526672363281 C 267.1753845214844 60.14480590820312 261.1231994628906 52.80955505371094 254.4568328857422 46.1431884765625 C 247.7904663085938 39.476806640625 240.4551696777344 33.42465209960938 232.6547088623047 28.15475463867188 C 224.7802429199219 22.8348388671875 216.3623809814453 18.26577758789062 207.6348876953125 14.5743408203125 C 198.7467041015625 10.81497192382812 189.4453735351562 7.92767333984375 179.9892578125 5.99267578125 C 170.2850036621094 4.00689697265625 160.2960815429688 3 150.3000030517578 3 M 150.3000030517578 0 C 233.3083801269531 0 300.6000061035156 67.29159545898438 300.6000061035156 150.2999725341797 C 300.6000061035156 233.308349609375 233.3083801269531 300.5999450683594 150.3000030517578 300.5999450683594 C 67.29158020019531 300.5999450683594 0 233.308349609375 0 150.2999725341797 C 0 67.29159545898438 67.29158020019531 0 150.3000030517578 0 Z" stroke="none" fill="#026773"/>
    </g>
    <g id="caliography" transform="translate(513.946 152.687)">
      <text id="d" transform="translate(-51.25 132.491)" fill="#026773" stroke="rgba(0,0,0,0)" stroke-miterlimit="10" stroke-width="1" font-size="198" font-family="SegoeUIEmoji, Segoe UI Emoji"><tspan x="0" y="0">d</tspan></text>
      <text id="B" transform="translate(41.964 128.615)" fill="#026773" stroke="rgba(0,0,0,0)" stroke-miterlimit="10" stroke-width="1" font-size="189" font-family="SegoeUIEmoji, Segoe UI Emoji"><tspan x="0" y="0">B</tspan></text>
    </g>
  </g>
</svg>
