<svg xmlns="http://www.w3.org/2000/svg" xmlns:xlink="http://www.w3.org/1999/xlink" width="300.6" height="300.6" viewBox="0 0 300.6 300.6">
  <defs>
    <radialGradient id="radial-gradient" cx="0.5" cy="0.5" r="0.5" gradientUnits="objectBoundingBox">
      <stop offset="0" stop-color="#fff"/>
      <stop offset="1" stop-color="#026773" stop-opacity="0.251"/>
    </radialGradient>
  </defs>
  <g id="logo" transform="translate(-413 -63)">
    <g id="outer_circle" transform="translate(413 63)" fill="url(#radial-gradient)">
      <path d="M 150.3000030517578 299.8499450683594 C 140.1527404785156 299.8499450683594 130.0120849609375 298.8276977539062 120.1596603393555 296.8115844726562 C 110.5580444335938 294.8468322753906 101.1135787963867 291.9151000976562 92.08861541748047 288.0978698730469 C 83.22734832763672 284.349853515625 74.68058013916016 279.7108154296875 66.68569183349609 274.3096008300781 C 58.76661682128906 268.9595642089844 51.31980895996094 262.8153991699219 44.55219650268555 256.0477905273438 C 37.78454208374023 249.2801208496094 31.64038848876953 241.8333587646484 26.29034996032715 233.9142456054688 C 20.88911819458008 225.9194030761719 16.25008010864258 217.3726196289062 12.50207996368408 208.5113525390625 C 8.684848785400391 199.4863891601562 5.753118515014648 190.0419311523438 3.788349151611328 180.4403228759766 C 1.772233843803406 170.587890625 0.7500030398368835 160.4472351074219 0.7500030398368835 150.2999725341797 C 0.7500030398368835 140.1527099609375 1.772233843803406 130.0120544433594 3.788349151611328 120.1596298217773 C 5.753118515014648 110.5580139160156 8.684848785400391 101.1135482788086 12.50207996368408 92.08858489990234 C 16.25008010864258 83.22731781005859 20.88911819458008 74.68054962158203 26.29034996032715 66.68570709228516 C 31.64038848876953 58.76658630371094 37.78454208374023 51.31982040405273 44.55219650268555 44.55216598510742 C 51.31980895996094 37.78454971313477 58.76661682128906 31.64039611816406 66.68569183349609 26.29035758972168 C 74.68058013916016 20.88912582397461 83.22734832763672 16.25008773803711 92.08861541748047 12.50208759307861 C 101.1135787963867 8.684857368469238 110.5580444335938 5.75312614440918 120.1596603393555 3.788357257843018 C 130.0120849609375 1.772241711616516 140.1527404785156 0.7500109672546387 150.3000030517578 0.7500109672546387 C 160.447265625 0.7500109672546387 170.5879211425781 1.772241711616516 180.4403533935547 3.788357257843018 C 190.0419616699219 5.75312614440918 199.4864196777344 8.684857368469238 208.5113830566406 12.50208759307861 C 217.3726501464844 16.25008773803711 225.91943359375 20.88912582397461 233.914306640625 26.29035758972168 C 241.8333892822266 31.64039611816406 249.2801971435547 37.78454971313477 256.0478210449219 44.55216598510742 C 262.8154602050781 51.31982040405273 268.9596252441406 58.76658630371094 274.3096618652344 66.68570709228516 C 279.7108764648438 74.68054962158203 284.3499145507812 83.22731781005859 288.0979309082031 92.08858489990234 C 291.9151611328125 101.1135482788086 294.8468933105469 110.5580139160156 296.8116455078125 120.1596298217773 C 298.8277587890625 130.0120544433594 299.8500061035156 140.1527099609375 299.8500061035156 150.2999725341797 C 299.8500061035156 160.4472351074219 298.8277587890625 170.587890625 296.8116455078125 180.4403228759766 C 294.8468933105469 190.0419311523438 291.9151611328125 199.4863891601562 288.0979309082031 208.5113525390625 C 284.3499145507812 217.3726196289062 279.7108764648438 225.9194030761719 274.3096618652344 233.9142456054688 C 268.9596252441406 241.8333587646484 262.8154602050781 249.2801208496094 256.0478210449219 256.0477905273438 C 249.2801971435547 262.8153991699219 241.8333892822266 268.9595642089844 233.914306640625 274.3096008300781 C 225.91943359375 279.7108154296875 217.3726501464844 284.349853515625 208.5113830566406 288.0978698730469 C 199.4864196777344 291.9151000976562 190.0419616699219 294.8468322753906 180.4403533935547 296.8115844726562 C 170.5879211425781 298.8276977539062 160.447265625 299.8499450683594 150.3000030517578 299.8499450683594 Z" stroke="none"/>
      <path d="M 150.3000030517578 1.5 C 140.203125 1.5 130.113037109375 2.517120361328125 120.3099975585938 4.52313232421875 C 110.7568817138672 6.47796630859375 101.3601531982422 9.3948974609375 92.38076782226562 13.19281005859375 C 83.5640869140625 16.92196655273438 75.06027221679688 21.53768920898438 67.10554504394531 26.91180419921875 C 59.22599792480469 32.23513793945312 51.81639099121094 38.3486328125 45.08250427246094 45.08250427246094 C 38.3486328125 51.81639099121094 32.235107421875 59.22601318359375 26.91180419921875 67.10554504394531 C 21.53768920898438 75.06028747558594 16.92196655273438 83.5640869140625 13.19281005859375 92.38078308105469 C 9.3948974609375 101.3601226806641 6.47796630859375 110.7568969726562 4.52313232421875 120.3100128173828 C 2.517120361328125 130.1130065917969 1.5 140.2030944824219 1.5 150.2999725341797 C 1.5 160.3968505859375 2.517120361328125 170.4869384765625 4.52313232421875 180.2899322509766 C 6.47796630859375 189.8430480957031 9.3948974609375 199.2398223876953 13.19281005859375 208.2191619873047 C 16.92196655273438 217.0358581542969 21.53768920898438 225.5396728515625 26.91180419921875 233.494384765625 C 32.235107421875 241.3739318847656 38.3486328125 248.7835540771484 45.08250427246094 255.5174255371094 C 51.81639099121094 262.2513122558594 59.22599792480469 268.3648071289062 67.10554504394531 273.6881103515625 C 75.06027221679688 279.062255859375 83.5640869140625 283.677978515625 92.38076782226562 287.4071350097656 C 101.3601531982422 291.2050476074219 110.7568817138672 294.1219787597656 120.3099975585938 296.0768127441406 C 130.113037109375 298.0828247070312 140.203125 299.0999450683594 150.3000030517578 299.0999450683594 C 160.3968811035156 299.0999450683594 170.4869689941406 298.0828247070312 180.2899627685547 296.0768127441406 C 189.8430786132812 294.1219787597656 199.2398529052734 291.2050476074219 208.2191925048828 287.4071350097656 C 217.035888671875 283.677978515625 225.5397338867188 279.062255859375 233.4944610595703 273.6881103515625 C 241.3740081787109 268.3648071289062 248.7836151123047 262.2513122558594 255.5175018310547 255.5174255371094 C 262.2513427734375 248.7835540771484 268.3648986816406 241.3739318847656 273.6882019042969 233.494384765625 C 279.0623168945312 225.5396728515625 283.6780395507812 217.0358581542969 287.4071655273438 208.2191619873047 C 291.2051086425781 199.2398223876953 294.1220397949219 189.8430480957031 296.0768737792969 180.2899322509766 C 298.0828857421875 170.4869384765625 299.1000061035156 160.3968505859375 299.1000061035156 150.2999725341797 C 299.1000061035156 140.2030944824219 298.0828857421875 130.1130065917969 296.0768737792969 120.3100128173828 C 294.1220397949219 110.7568969726562 291.2051086425781 101.3601226806641 287.4071655273438 92.38078308105469 C 283.6780395507812 83.5640869140625 279.0623168945312 75.06028747558594 273.6882019042969 67.10554504394531 C 268.3648986816406 59.22601318359375 262.2513427734375 51.81639099121094 255.5175018310547 45.08250427246094 C 248.7836151123047 38.3486328125 241.3740081787109 32.23513793945312 233.4944610595703 26.91180419921875 C 225.5397338867188 21.53768920898438 217.035888671875 16.92196655273438 208.2191925048828 13.19281005859375 C 199.2398529052734 9.3948974609375 189.8430786132812 6.47796630859375 180.2899627685547 4.52313232421875 C 170.4869689941406 2.517120361328125 160.3968811035156 1.5 150.3000030517578 1.5 M 150.3000030517578 0 C 233.3083801269531 0 300.6000061035156 67.29159545898438 300.6000061035156 150.2999725341797 C 300.6000061035156 233.308349609375 233.3083801269531 300.5999450683594 150.3000030517578 300.5999450683594 C 67.29158020019531 300.5999450683594 0 233.308349609375 0 150.2999725341797 C 0 67.29159545898438 67.29158020019531 0 150.3000030517578 0 Z" stroke="none" fill="#026773"/>
    </g>
    <g id="caliography" transform="translate(513.946 152.687)">
      <text id="d" transform="translate(-51.25 132.491)" fill="#026773" stroke="rgba(0,0,0,0)" stroke-miterlimit="10" stroke-width="1" font-size="198" font-family="SegoeUIEmoji, Segoe UI Emoji"><tspan x="0" y="0">d</tspan></text>
      <text id="B" transform="translate(41.964 128.615)" fill="#026773" stroke="rgba(0,0,0,0)" stroke-miterlimit="10" stroke-width="1" font-size="189" font-family="SegoeUIEmoji, Segoe UI Emoji"><tspan x="0" y="0">B</tspan></text>
    </g>
  </g>
</svg>
